<svg viewBox="0 0 25.083 25.083" xmlns="http://www.w3.org/2000/svg" width="25.083008" height="25.083008" fill="none">
	<path d="M12.9165 11.1851C13.3852 11.3179 13.7525 11.6934 13.8737 12.167L18.0685 12.167C18.1669 12.167 18.2631 12.1772 18.357 12.1977C18.4374 12.2153 18.5162 12.2405 18.5933 12.2729C18.7546 12.3413 18.8974 12.4375 19.0217 12.5618C19.1459 12.686 19.2422 12.8289 19.3104 12.99C19.3811 13.1572 19.4165 13.3323 19.4165 13.5149L19.4165 14.7944C19.4165 15.0044 19.2515 15.1694 19.0415 15.1694C18.8315 15.1694 18.6665 15.0044 18.6665 14.7944L18.6665 13.5149C18.6665 13.467 18.6611 13.4206 18.6503 13.3755C18.6428 13.3437 18.6325 13.3127 18.6197 13.2822C18.5894 13.2107 18.5466 13.1475 18.4914 13.092C18.4361 13.0369 18.3727 12.9939 18.3012 12.9639C18.2706 12.951 18.2395 12.9407 18.2077 12.9331C18.1626 12.9224 18.1162 12.917 18.0685 12.917L13.8546 12.917C13.6804 13.4763 13.1579 13.8833 12.5415 13.8833C11.9251 13.8833 11.4027 13.4763 11.2284 12.917L7.01448 12.917C6.96675 12.917 6.9203 12.9224 6.87513 12.9331C6.8434 12.9407 6.8123 12.9509 6.78183 12.9639C6.74965 12.9773 6.71913 12.9936 6.69025 13.0122C6.65493 13.0352 6.62205 13.0618 6.59165 13.092C6.56123 13.1226 6.5346 13.1553 6.51175 13.1907C6.49308 13.2195 6.47695 13.25 6.46333 13.2822C6.45045 13.3127 6.44023 13.3437 6.43265 13.3755C6.42188 13.4206 6.4165 13.4673 6.4165 13.5149L6.4165 14.8379C6.4165 15.0478 6.2515 15.2129 6.0415 15.2129C5.8315 15.2129 5.6665 15.0478 5.6665 14.8379L5.6665 13.5149C5.6665 13.4165 5.67675 13.3203 5.69728 13.2266L5.69728 13.2263L5.6973 13.2263C5.71487 13.1459 5.73996 13.0672 5.77258 12.9902C5.80516 12.9131 5.84414 12.8403 5.8895 12.7717L5.88955 12.7717C5.93917 12.6967 5.99642 12.6267 6.0613 12.5618C6.1262 12.4968 6.19615 12.4397 6.27115 12.3899C6.33978 12.3447 6.4126 12.3057 6.48965 12.2729C6.56679 12.2404 6.64556 12.2153 6.72598 12.1977L6.72643 12.1976C6.82022 12.1772 6.91623 12.167 7.01448 12.167L11.2093 12.167C11.3305 11.6936 11.6978 11.3179 12.1665 11.1851L12.1665 10.292C12.1665 10.082 12.3315 9.91699 12.5415 9.91699C12.7515 9.91699 12.9165 10.082 12.9165 10.292L12.9165 11.1851ZM13.1665 12.5083C13.1665 12.853 12.8863 13.1333 12.5415 13.1333C12.1966 13.1333 11.9165 12.853 11.9165 12.5083C11.9165 12.1634 12.1966 11.8833 12.5415 11.8833C12.8863 11.8833 13.1665 12.1634 13.1665 12.5083Z" fill="currentColor" fill-rule="evenodd" />
	<path d="M15.6151 2.94556C15.7828 3.01489 15.9361 3.11913 16.075 3.25806C16.2139 3.39698 16.3181 3.55028 16.3876 3.71801C16.4571 3.88573 16.4918 4.06786 16.4918 4.26416L16.4918 9.31836C16.4918 9.51481 16.4571 9.69686 16.3876 9.86451L16.3876 9.86451C16.3181 10.0322 16.2139 10.1855 16.075 10.3245C15.9361 10.4634 15.7828 10.5676 15.6151 10.6372C15.4474 10.7065 15.2653 10.7412 15.0688 10.7412L10.0148 10.7412C9.8183 10.7412 9.6362 10.7065 9.4685 10.6372C9.3008 10.5676 9.1475 10.4634 9.00857 10.3245C8.86965 10.1855 8.76545 10.0322 8.696 9.86451C8.62652 9.69678 8.5918 9.51488 8.5918 9.31836L8.5918 4.26416C8.5918 4.06771 8.62652 3.88566 8.69597 3.71801L8.696 3.71801C8.76545 3.55028 8.86965 3.39698 9.00857 3.25806C9.14745 3.11928 9.30069 3.01514 9.4683 2.94564L9.4685 2.94556C9.6362 2.87598 9.8183 2.84131 10.0148 2.84131L15.0688 2.84131C15.2653 2.84131 15.4474 2.87606 15.6151 2.94556ZM10.0143 3.74316L15.0683 3.74316C15.1405 3.74316 15.2075 3.75611 15.2691 3.78149C15.3307 3.80714 15.3871 3.84546 15.4381 3.89649C15.4885 3.94674 15.5264 4.00221 15.5519 4.0629C15.5523 4.06375 15.5526 4.06459 15.553 4.06544L15.553 4.06544C15.5785 4.12719 15.5913 4.19409 15.5913 4.26611L15.5913 9.32031C15.5913 9.49464 15.5477 9.62524 15.4606 9.71241C15.3734 9.79956 15.2427 9.84326 15.0683 9.84326L10.0143 9.84326C9.83996 9.84326 9.70921 9.79956 9.62206 9.71241C9.53489 9.62524 9.49131 9.49464 9.49131 9.32031L9.49131 4.26611C9.49131 4.09182 9.53489 3.96113 9.62204 3.87404L9.62206 3.87401L9.62226 3.87381C9.70941 3.78671 9.84008 3.74316 10.0143 3.74316ZM8.56883 14.3413C8.7653 14.3413 8.94738 14.376 9.11508 14.4456C9.28278 14.5149 9.4361 14.6191 9.57503 14.7581C9.71395 14.897 9.81813 15.0503 9.8876 15.218C9.95708 15.3857 9.9918 15.5679 9.9918 15.7642L9.9918 20.8184C9.9918 21.0149 9.95708 21.197 9.8876 21.3645C9.81813 21.5322 9.71395 21.6855 9.57503 21.8245C9.4361 21.9634 9.28278 22.0676 9.11508 22.1372C8.94738 22.2065 8.7653 22.2412 8.56883 22.2412L3.51478 22.2412C3.3183 22.2412 3.1362 22.2065 2.96851 22.1372C2.80081 22.0676 2.6475 21.9634 2.50858 21.8245C2.36965 21.6855 2.26545 21.5322 2.19599 21.3645C2.12653 21.1968 2.0918 21.0149 2.0918 20.8184L2.0918 15.7642C2.0918 15.5679 2.12653 15.3857 2.19599 15.218C2.26546 15.0503 2.36965 14.897 2.50858 14.7581C2.6475 14.6191 2.80082 14.5149 2.96852 14.4456C3.1362 14.376 3.3183 14.3413 3.51478 14.3413L8.56883 14.3413ZM21.5688 14.3413C21.7653 14.3413 21.9474 14.376 22.1151 14.4456C22.2828 14.5149 22.4361 14.6191 22.575 14.7581C22.7139 14.897 22.8181 15.0503 22.8876 15.218C22.9571 15.3857 22.9918 15.5679 22.9918 15.7642L22.9918 20.8184C22.9918 21.0149 22.9571 21.197 22.8876 21.3645C22.8181 21.5322 22.7139 21.6855 22.575 21.8245C22.4361 21.9634 22.2828 22.0676 22.1151 22.1372C21.9474 22.2065 21.7653 22.2412 21.5688 22.2412L16.5148 22.2412C16.3183 22.2412 16.1362 22.2065 15.9685 22.1372C15.8008 22.0676 15.6475 21.9634 15.5086 21.8245C15.3696 21.6855 15.2654 21.5322 15.196 21.3645C15.1265 21.1968 15.0918 21.0149 15.0918 20.8184L15.0918 15.7642C15.0918 15.5679 15.1265 15.3857 15.196 15.218C15.2654 15.0503 15.3696 14.897 15.5086 14.7581C15.6475 14.6191 15.8008 14.5149 15.9685 14.4456C16.1362 14.376 16.3183 14.3413 16.5148 14.3413L21.5688 14.3413ZM8.56834 15.2432L3.51429 15.2432C3.33996 15.2432 3.20921 15.2869 3.12206 15.374L3.12203 15.374C3.03488 15.4611 2.99131 15.5918 2.99131 15.7661L2.99131 20.8203C2.99131 20.9946 3.03489 21.1252 3.12206 21.2124L3.12226 21.2126C3.20941 21.2997 3.34009 21.3433 3.51429 21.3433L8.56834 21.3433C8.74266 21.3433 8.87341 21.2996 8.96056 21.2124C9.04774 21.1252 9.09131 20.9946 9.09131 20.8203L9.09131 15.7661C9.09131 15.6941 9.07854 15.6272 9.05301 15.5654C9.02748 15.5039 8.98919 15.4476 8.93814 15.3965C8.88707 15.3454 8.83072 15.307 8.76909 15.2815C8.70746 15.2561 8.64054 15.2432 8.56834 15.2432ZM21.5683 15.2432L16.5143 15.2432C16.34 15.2432 16.2092 15.2869 16.1221 15.374C16.0349 15.4611 15.9913 15.5918 15.9913 15.7661L15.9913 20.8203C15.9913 20.9946 16.0349 21.1252 16.1221 21.2124C16.2092 21.2996 16.34 21.3433 16.5143 21.3433L21.5683 21.3433C21.7427 21.3433 21.8734 21.2996 21.9606 21.2124C22.0477 21.1252 22.0913 20.9946 22.0913 20.8203L22.0913 15.7661C22.0913 15.6941 22.0785 15.6272 22.053 15.5654C22.0275 15.5039 21.9892 15.4476 21.9381 15.3965C21.8871 15.3455 21.8307 15.3071 21.7691 15.2815C21.7075 15.2561 21.6405 15.2432 21.5683 15.2432Z" fill="currentColor" fill-rule="evenodd" />
</svg>
