<svg viewBox="0 0 17.1665 17.1665" xmlns="http://www.w3.org/2000/svg" width="17" height="17" fill="none">
	<path d="M5.71316 5.54497C5.56596 5.46397 5.38669 5.516 5.30571 5.66319C5.22471 5.81039 5.27674 5.98967 5.42394 6.07067L6.32181 6.56464L8.11748 7.55257C8.14641 7.56849 8.17606 7.58274 8.20639 7.59525C8.21664 7.59949 8.22698 7.60354 8.23739 7.60739L8.23739 10.7161C8.23739 10.8841 8.36939 11.0161 8.53738 11.0161C8.70539 11.0161 8.83739 10.8841 8.83739 10.7161L8.83739 7.61612C8.85653 7.60967 8.87543 7.60259 8.89404 7.59487C8.92404 7.58244 8.95336 7.56834 8.98198 7.55262L10.7777 6.56464L11.6755 6.07067C11.8227 5.98967 11.8747 5.81039 11.7937 5.66319C11.7127 5.516 11.5335 5.46399 11.3863 5.54497L10.4884 6.03895L8.69288 7.02685C8.67499 7.03669 8.65653 7.04452 8.63741 7.05035C8.60948 7.05889 8.58026 7.06315 8.54973 7.06315C8.51903 7.06315 8.48963 7.05884 8.46158 7.05022C8.44268 7.0444 8.42438 7.03662 8.40668 7.02689L6.61103 6.03895L5.71316 5.54497Z" fill="currentColor" fill-rule="evenodd" />
	<path d="M8.98216 2.70095L12.5734 4.6768C12.7278 4.76173 12.8419 4.86946 12.9156 4.99998C12.9829 5.11913 13.0165 5.25728 13.0165 5.41443L13.0165 9.36618C13.0165 9.52325 12.9829 9.66135 12.9157 9.78046C12.842 9.91106 12.7279 10.0188 12.5734 10.1038L8.98209 12.0798C8.83799 12.159 8.69391 12.1986 8.54981 12.1986C8.40574 12.1986 8.26166 12.159 8.11759 12.0797L4.52621 10.1038C4.37177 10.0188 4.25772 9.91108 4.18404 9.78053C4.11681 9.6614 4.08317 9.52327 4.08317 9.36618L4.08317 5.41443C4.08317 5.25726 4.11682 5.1191 4.18411 4.99995C4.2578 4.86945 4.37183 4.76173 4.52622 4.6768L8.11759 2.70095C8.26162 2.6217 8.40566 2.58205 8.54971 2.58203C8.69384 2.582 8.83799 2.62163 8.98216 2.70095ZM12.2838 5.20347L8.69243 3.2276C8.64474 3.20137 8.59702 3.18823 8.54932 3.18825C8.50165 3.18828 8.454 3.20138 8.40635 3.2276L4.81497 5.20347C4.76397 5.23152 4.72773 5.26695 4.70622 5.3098C4.69053 5.34107 4.68267 5.37627 4.68267 5.41542L4.68267 9.36717C4.68267 9.4063 4.69053 9.44147 4.7062 9.47272C4.72771 9.5156 4.76398 9.55109 4.815 9.57917L8.40633 11.555C8.45395 11.5812 8.50157 11.5943 8.54922 11.5944C8.59697 11.5944 8.64474 11.5813 8.6925 11.555L12.2837 9.57915C12.3347 9.55108 12.371 9.51563 12.3925 9.47277C12.4082 9.44152 12.416 9.4063 12.416 9.36717L12.416 5.41542C12.416 5.37627 12.4082 5.34105 12.3925 5.3098C12.371 5.26695 12.3347 5.23152 12.2838 5.20347ZM14.3692 9.78403C14.2416 9.6748 14.2271 9.48869 14.3364 9.36107C14.4456 9.23342 14.6318 9.21898 14.7594 9.32824C15.2764 9.7708 15.5764 10.2485 15.6594 10.7613C15.6753 10.8593 15.6832 10.9586 15.6832 11.0591C15.6832 11.2087 15.667 11.3546 15.6346 11.4969C15.4503 12.3068 14.7414 12.9973 13.5078 13.5684C12.1335 14.2047 10.4809 14.5228 8.54984 14.5228C6.61881 14.5228 4.96616 14.2047 3.59189 13.5684C2.35828 12.9973 1.64933 12.3068 1.46505 11.4969C1.43269 11.3546 1.4165 11.2087 1.4165 11.0591C1.4165 10.9586 1.42442 10.8594 1.44025 10.7615C1.52305 10.2493 1.82242 9.77209 2.33836 9.32989C2.46593 9.22055 2.65206 9.23487 2.76138 9.36244C2.87071 9.48998 2.85639 9.67614 2.72883 9.78545C2.28644 10.1646 2.05011 10.559 2.01984 10.9686C2.01762 10.9987 2.0165 11.0289 2.0165 11.0591C2.0165 11.1258 2.02136 11.1917 2.03109 11.2569C2.13023 11.9213 2.73452 12.5103 3.84398 13.024C5.13831 13.6232 6.70691 13.9228 8.54984 13.9228C10.3928 13.9228 11.9614 13.6232 13.2557 13.024C14.3652 12.5103 14.9695 11.9213 15.0686 11.2569C15.0783 11.1917 15.0832 11.1258 15.0832 11.0591C15.0832 11.0288 15.0821 10.9986 15.0798 10.9685C15.0495 10.5584 14.8126 10.1636 14.3692 9.78403Z" fill="currentColor" fill-rule="evenodd" />
</svg>
