<svg viewBox="0 0 24 24" xmlns="http://www.w3.org/2000/svg" xmlns:xlink="http://www.w3.org/1999/xlink" width="24.000000" height="24.000000" fill="none" customFrame="#000000">
	<rect id="icon/01公共图标/鲲鹏/24px/人" width="24.000000" height="24.000000" x="0.000000" y="0.000000" />
	<g id="编组 13">
		<rect id="矩形" width="24.000000" height="24.000000" x="0.000000" y="0.000000" fill="rgb(216,216,216)" fill-opacity="0" />
		<rect id="矩形" width="23.000000" height="23.000000" x="0.500000" y="0.500000" stroke="rgb(151,151,151)" stroke-opacity="0" stroke-width="1.000000" />
		<path id="形状结合" d="M7.05984 7.74795C7.05984 5.0184 9.27258 2.80566 12.0021 2.80566C14.7317 2.80566 16.9444 5.0184 16.9444 7.74795C16.9444 10.4775 14.7317 12.6902 12.0021 12.6902C11.9494 12.6902 11.8968 12.6894 11.8444 12.6878C7.61219 12.7675 4.21396 16.1232 4.21396 20.2416C4.21396 20.6282 3.90056 20.9416 3.51396 20.9416C3.12737 20.9416 2.81396 20.6282 2.81396 20.2416C2.81396 16.2829 5.44642 12.9287 9.09302 11.7438C7.86065 10.845 7.05984 9.39001 7.05984 7.74795ZM12.0673 11.2897C12.0447 11.2875 12.0217 11.2863 11.9985 11.2863C11.9515 11.2863 11.9046 11.2867 11.8577 11.2874C9.96834 11.2116 8.45984 9.65595 8.45984 7.74795C8.45984 5.7916 10.0458 4.20566 12.0021 4.20566C13.9585 4.20566 15.5444 5.7916 15.5444 7.74795C15.5444 9.68254 13.9936 11.2549 12.0673 11.2897ZM16.341 12.3482C19.2996 13.8963 21.1884 16.9064 21.1884 20.244C21.1884 20.6306 20.8749 20.944 20.4883 20.944C20.1017 20.944 19.7883 20.6306 19.7883 20.244C19.7883 17.4362 18.1964 14.8991 15.692 13.5887C15.3494 13.4095 15.217 12.9865 15.3963 12.644C15.5755 12.3014 15.9985 12.169 16.341 12.3482Z" fill="rgb(0,0,0)" fill-opacity="0.800000012" fill-rule="evenodd" />
	</g>
</svg>
