<svg viewBox="0 0 25.083 25.083" xmlns="http://www.w3.org/2000/svg" width="25" height="25" fill="none">
	<path d="M20.8948 2.09131C21.095 2.09131 21.2806 2.12671 21.4515 2.19751C21.6223 2.26831 21.7786 2.37451 21.9201 2.51611C22.0617 2.65747 22.1679 2.81372 22.2387 2.98462C22.3094 3.15551 22.3448 3.34106 22.3448 3.54126L22.3448 21.5413C22.3448 21.7415 22.3094 21.927 22.2387 22.0979C22.1679 22.2688 22.0617 22.4251 21.9201 22.5667C21.7786 22.7083 21.6223 22.8145 21.4515 22.8853C21.2806 22.9558 21.095 22.9912 20.8948 22.9912L11.8948 22.9912C11.6946 22.9912 11.5091 22.9558 11.3382 22.8853C11.1673 22.8145 11.0111 22.7083 10.8695 22.5667C10.728 22.4251 10.6218 22.2688 10.551 22.0979C10.4802 21.927 10.4448 21.7415 10.4448 21.5413L10.4448 3.54126C10.4448 3.34113 10.4802 3.15564 10.5509 2.98479L10.551 2.98462C10.6218 2.81372 10.728 2.65747 10.8695 2.51611C11.0111 2.37451 11.1673 2.26831 11.3382 2.19751C11.5091 2.12671 11.6946 2.09131 11.8948 2.09131L20.8948 2.09131ZM11.8948 2.99121L20.8948 2.99121C21.0782 2.99121 21.2157 3.03711 21.3073 3.12891C21.399 3.22046 21.4448 3.35791 21.4448 3.54126L21.4448 21.5413C21.4448 21.7246 21.399 21.8621 21.3073 21.9539C21.2157 22.0454 21.0782 22.0913 20.8948 22.0913L11.8948 22.0913C11.7115 22.0913 11.574 22.0454 11.4823 21.9539C11.3907 21.8621 11.3448 21.7246 11.3448 21.5413L11.3448 3.54126C11.3448 3.35791 11.3907 3.22046 11.4823 3.12891C11.574 3.03711 11.7115 2.99121 11.8948 2.99121ZM9.39483 4.09131L7.64483 4.09131C7.53933 4.09131 7.4362 4.10228 7.33548 4.12426C7.24863 4.14306 7.16358 4.17016 7.08028 4.20531C6.99723 4.24048 6.91874 4.28255 6.8448 4.33153L6.84478 4.33153C6.76428 4.38476 6.68918 4.44628 6.6195 4.51611C6.48588 4.64966 6.38235 4.80323 6.30895 4.97681C6.23285 5.15673 6.19483 5.34473 6.19483 5.54126L6.19483 19.5413C6.19483 19.7378 6.23285 19.926 6.30895 20.106C6.38235 20.2793 6.48588 20.4329 6.6195 20.5667C6.75315 20.7002 6.90675 20.8037 7.08028 20.8772C7.26018 20.9534 7.44835 20.9912 7.64483 20.9912L9.39483 20.9912C9.64683 20.9912 9.84483 20.7932 9.84483 20.5413C9.84483 20.2893 9.64683 20.0913 9.39483 20.0913L7.64483 20.0913C7.57003 20.0913 7.4987 20.0769 7.43088 20.0483C7.36513 20.0205 7.3068 19.9812 7.2559 19.9302C7.20503 19.8794 7.16565 19.821 7.13785 19.7554C7.10918 19.6875 7.09483 19.6162 7.09483 19.5413L7.09483 5.54126C7.09483 5.49658 7.09995 5.45313 7.11018 5.41088C7.11708 5.38256 7.1263 5.35473 7.13785 5.32738C7.16565 5.26171 7.20503 5.20336 7.2559 5.15233C7.2842 5.12403 7.3148 5.09936 7.34768 5.07813C7.37395 5.06128 7.40168 5.04663 7.43088 5.03443C7.45818 5.02271 7.48605 5.01366 7.51448 5.00658C7.55668 4.99633 7.60013 4.99121 7.64483 4.99121L9.39483 4.99121C9.64683 4.99121 9.84483 4.79321 9.84483 4.54126C9.84483 4.28931 9.64683 4.09131 9.39483 4.09131ZM5.14483 6.09131L4.14483 6.09131C4.03982 6.09131 3.93718 6.10219 3.83689 6.12395L3.83548 6.12426L3.83305 6.12479C3.74705 6.14365 3.66279 6.17049 3.58028 6.20531C3.49721 6.24048 3.41871 6.28271 3.34478 6.33153C3.26428 6.38476 3.18918 6.44628 3.11951 6.51611C2.98587 6.64966 2.88235 6.80323 2.80896 6.97681C2.77373 7.06006 2.74665 7.14501 2.72774 7.23193C2.7058 7.33276 2.69482 7.43578 2.69482 7.54126L2.69482 17.5413C2.69482 17.7378 2.73287 17.926 2.80896 18.106C2.88235 18.2793 2.98587 18.4329 3.11951 18.5667C3.25316 18.7002 3.40676 18.8037 3.58028 18.8772C3.76018 18.9534 3.94836 18.9912 4.14483 18.9912L5.14483 18.9912C5.39683 18.9912 5.59483 18.7932 5.59483 18.5413C5.59483 18.2893 5.39683 18.0913 5.14483 18.0913L4.14483 18.0913C4.07003 18.0913 3.99871 18.0769 3.93088 18.0483C3.86513 18.0205 3.80681 17.9812 3.75591 17.9302C3.70503 17.8794 3.66566 17.821 3.63786 17.7554C3.60918 17.6875 3.59483 17.6162 3.59483 17.5413L3.59483 7.54126C3.59483 7.46656 3.60918 7.39526 3.63786 7.32738C3.65021 7.29808 3.66483 7.27051 3.68173 7.24413C3.70288 7.21118 3.72763 7.18066 3.75591 7.15233C3.7838 7.12451 3.81392 7.10014 3.84627 7.0792C3.87295 7.06194 3.90116 7.04701 3.93088 7.03443C3.99871 7.00561 4.07003 6.99121 4.14483 6.99121L5.14483 6.99121C5.39683 6.99121 5.59483 6.79321 5.59483 6.54126C5.59483 6.28931 5.39683 6.09131 5.14483 6.09131Z" fill="currentColor" fill-rule="evenodd" />
	<path d="M16.8447 8.27173L18.5765 10.0034C18.7547 10.1816 19.0347 10.1816 19.2129 10.0034C19.3911 9.82521 19.3911 9.54541 19.2129 9.36718L16.7129 6.86718C16.6069 6.76107 16.5008 6.70801 16.3947 6.70801C16.2887 6.70801 16.1826 6.76107 16.0765 6.86718L13.5765 9.36718C13.3983 9.54541 13.3983 9.82521 13.5765 10.0034C13.7547 10.1816 14.0347 10.1816 14.2129 10.0034L15.9447 8.27173L15.9447 15.9028C15.9447 16.1548 16.1427 16.3528 16.3947 16.3528C16.6467 16.3528 16.8447 16.1548 16.8447 15.9028L16.8447 8.27173ZM14.101 19.1913L18.4814 19.1913C18.7334 19.1913 18.9314 18.9933 18.9314 18.7413C18.9314 18.4894 18.7334 18.2914 18.4814 18.2914L14.101 18.2914C13.849 18.2914 13.651 18.4894 13.651 18.7413C13.651 18.9933 13.849 19.1913 14.101 19.1913Z" fill="currentColor" fill-rule="evenodd" />
</svg>
